<svg width="42" height="42" viewBox="0 0 42 42" fill="none" xmlns="http://www.w3.org/2000/svg">
<path d="M39.0598 18.42C39.7607 16.7041 39.995 14.8332 39.7387 12.9975C39.4825 11.1617 38.7448 9.42649 37.6007 7.96815C36.4566 6.50982 34.9469 5.38032 33.2249 4.69444C31.5029 4.00856 29.6301 3.79074 27.7966 4.06311C26.6604 2.59952 25.1571 1.46265 23.4395 0.767939C21.7218 0.0732281 19.8508 -0.154583 18.0166 0.107638C16.1824 0.369859 14.4502 1.11277 12.996 2.26095C11.5418 3.40912 10.4173 4.92166 9.73664 6.64499C7.90015 6.89638 6.16293 7.62945 4.70152 8.76971C3.24011 9.90998 2.10661 11.4168 1.41619 13.137C0.725768 14.8573 0.503042 16.7296 0.770644 18.5638C1.03825 20.398 1.78664 22.1287 2.93977 23.58C2.37706 24.959 2.11415 26.4419 2.16851 27.9303C2.22288 29.4187 2.59326 30.8785 3.25508 32.2128C3.91689 33.547 4.85499 34.7252 6.00708 35.6692C7.15917 36.6131 8.49888 37.3011 9.93727 37.6875C10.8288 37.9315 11.7485 38.0576 12.6729 38.0625C13.1856 38.0618 13.6976 38.0236 14.2048 37.9481C15.3412 39.4112 16.8445 40.5475 18.5621 41.2418C20.2797 41.9361 22.1504 42.1636 23.9843 41.9012C25.8182 41.6388 27.55 40.8959 29.004 39.7478C30.458 38.5997 31.5823 37.0874 32.2629 35.3644C34.0994 35.113 35.8366 34.3799 37.298 33.2396C38.7594 32.0994 39.8929 30.5926 40.5833 28.8723C41.2738 27.1521 41.4965 25.2797 41.2289 23.4455C40.9613 21.6113 40.2129 19.8806 39.0598 18.4294V18.42ZM31.2841 7.20561C33.1743 7.7109 34.7922 8.93479 35.7926 10.6162C36.793 12.2976 37.0968 14.3034 36.6391 16.2056C36.4611 16.0864 36.2791 15.9732 36.0935 15.8662L27.7498 11.04C27.5217 10.9083 27.2631 10.839 26.9998 10.839C26.7365 10.839 26.4778 10.9083 26.2498 11.04L17.9998 15.8044V12.3394L25.5935 7.95561C26.4454 7.46078 27.387 7.13972 28.3637 7.01099C29.3405 6.88226 30.3331 6.94841 31.2841 7.20561ZM23.9998 22.7325L20.9998 24.465L17.9998 22.7325V19.2675L20.9998 17.535L23.9998 19.2675V22.7325ZM11.9998 10.5C12.0005 9.03374 12.4309 7.59986 13.2379 6.37567C14.0449 5.15148 15.193 4.19069 16.5403 3.61212C17.8876 3.03355 19.3749 2.86258 20.8183 3.12035C22.2617 3.37813 23.5979 4.05334 24.6616 5.06249C24.4741 5.15811 24.2866 5.24999 24.0991 5.36624L15.7498 10.1756C15.522 10.3071 15.3328 10.4963 15.2011 10.724C15.0695 10.9517 15 11.2101 14.9998 11.4731V21L11.9998 19.2675V10.5ZM4.66102 13.2994C5.61672 11.6326 7.17915 10.3993 9.02227 9.85686C9.0082 10.071 9.00069 10.2854 8.99977 10.5V20.1337C8.99971 20.3971 9.06899 20.6558 9.20064 20.8839C9.3323 21.112 9.52169 21.3014 9.74977 21.4331L17.9998 26.1956L14.9998 27.9375L7.40602 23.5444C5.68347 22.5498 4.42656 20.9117 3.91177 18.9904C3.39699 17.0691 3.6665 15.022 4.66102 13.2994ZM10.7154 34.7944C8.82524 34.2891 7.20737 33.0652 6.20693 31.3838C5.2065 29.7024 4.90272 27.6966 5.36039 25.7944C5.53852 25.9125 5.71852 26.0269 5.90602 26.1337L14.2498 30.96C14.4778 31.0916 14.7365 31.161 14.9998 31.161C15.2631 31.161 15.5217 31.0916 15.7498 30.96L23.9998 26.1956V29.6606L16.406 34.0444C15.5541 34.5392 14.6125 34.8603 13.6358 34.989C12.659 35.1177 11.6664 35.0516 10.7154 34.7944ZM29.9998 31.5C30.0005 32.9667 29.5713 34.4014 28.7651 35.6266C27.9589 36.8518 26.8112 37.8138 25.4639 38.3935C24.1166 38.9731 22.629 39.145 21.185 38.8879C19.741 38.6308 18.4041 37.9559 17.3398 36.9469C17.5273 36.8512 17.7148 36.75 17.9023 36.6412L26.2498 31.8244C26.4776 31.6928 26.6668 31.5037 26.7984 31.276C26.9301 31.0483 26.9995 30.7899 26.9998 30.5269V21L29.9998 22.7325V31.5ZM37.3385 28.7006C36.3828 30.3674 34.8204 31.6006 32.9773 32.1431C32.9904 31.9294 32.9998 31.7156 32.9998 31.5V21.8662C32.9998 21.6029 32.9305 21.3441 32.7989 21.1161C32.6672 20.888 32.4778 20.6985 32.2498 20.5669L23.9998 15.8044L26.9998 14.0719L34.5935 18.4556C36.3161 19.4502 37.573 21.0883 38.0877 23.0096C38.6025 24.9309 38.333 26.978 37.3385 28.7006Z" fill="#407EFF"/>
</svg>
