<svg width="32" height="44" viewBox="0 0 32 44" fill="none" xmlns="http://www.w3.org/2000/svg">
<path d="M28.3042 20.71C28.8942 21.2999 29.3622 22.0002 29.6815 22.7709C30.0008 23.5416 30.1651 24.3677 30.1651 25.202C30.1651 26.0363 30.0008 26.8624 29.6815 27.6331C29.3622 28.4039 28.8942 29.1041 28.3042 29.694L28.2842 29.714L16.0002 42L3.71222 29.712L3.69422 29.694C3.09043 29.0908 2.61453 28.3719 2.295 27.5805C1.97547 26.789 1.81887 25.9413 1.83457 25.0879C1.85027 24.2346 2.03796 23.3931 2.38639 22.614C2.73483 21.8348 3.23685 21.134 3.86243 20.5534C4.488 19.9728 5.22428 19.5243 6.02719 19.2348C6.83011 18.9453 7.68317 18.8208 8.53533 18.8687C9.38749 18.9165 10.2212 19.1358 10.9867 19.5133C11.7522 19.8909 12.4336 20.419 12.9902 21.066L16.0002 24.078L18.9002 21.178C19.4624 20.4916 20.1622 19.9307 20.9544 19.5312C21.7466 19.1318 22.6137 18.9027 23.4999 18.8588C24.386 18.8149 25.2715 18.9571 26.0993 19.2763C26.9271 19.5955 27.6789 20.0846 28.3062 20.712L28.3042 20.71ZM9.99822 8C9.99822 8.78793 10.1534 9.56815 10.4549 10.2961C10.7565 11.0241 11.1984 11.6855 11.7556 12.2426C12.3127 12.7998 12.9742 13.2418 13.7021 13.5433C14.4301 13.8448 15.2103 14 15.9982 14C16.7861 14 17.5664 13.8448 18.2943 13.5433C19.0223 13.2418 19.6837 12.7998 20.2409 12.2426C20.798 11.6855 21.24 11.0241 21.5415 10.2961C21.843 9.56815 21.9982 8.78793 21.9982 8C21.9982 7.21207 21.843 6.43185 21.5415 5.7039C21.24 4.97595 20.798 4.31451 20.2409 3.75736C19.6837 3.20021 19.0223 2.75825 18.2943 2.45672C17.5664 2.15519 16.7861 2 15.9982 2C15.2103 2 14.4301 2.15519 13.7021 2.45672C12.9742 2.75825 12.3127 3.20021 11.7556 3.75736C11.1984 4.31451 10.7565 4.97595 10.4549 5.7039C10.1534 6.43185 9.99822 7.21207 9.99822 8Z" stroke="#407EFF" stroke-width="3.5" stroke-linejoin="round"/>
</svg>
